<svg xmlns="http://www.w3.org/2000/svg" width="1240" height="1240"><path d="M569.5 373.417c-76.386 15.879-139.778 64.388-174.457 133.497-9.909 19.747-17.832 43.002-21.988 64.539C371.211 581.007 371 585.894 371 619c0 33.106.211 37.993 2.055 47.547 16.189 83.89 74.89 154.466 154.359 185.585 19.836 7.768 43.115 13.526 64.086 15.853 11.594 1.286 43.406 1.286 55 0 84.407-9.365 158.298-60.855 196.457-136.899 13.027-25.961 21.821-55.682 25.028-84.586 1.286-11.594 1.286-43.406 0-55-9.365-84.407-60.855-158.298-136.899-196.457-19.747-9.909-43.002-17.832-64.539-21.988-9.626-1.858-14.267-2.049-48.348-1.99-35.256.061-38.412.214-48.699 2.352m35.5 39.27c-63.449 4.766-123 39.779-158.017 92.909-37.102 56.292-44.972 125.788-21.412 189.086 6.979 18.752 19.142 40.183 32.201 56.739 7.167 9.087 23.72 25.64 32.807 32.807 76.922 60.675 183.92 60.675 260.842 0 9.087-7.167 25.64-23.72 32.807-32.807 18.196-23.068 31.62-50.008 38.8-77.866 4.937-19.154 6.389-31.094 6.389-52.555 0-34.871-6.964-64.493-22.193-94.404C768.859 451.249 689.176 406.365 605 412.687m1 64.889c-16.641 4.37-32.934 17.53-40.312 32.559-11.845 24.131-7.316 51.822 11.6 70.915 7.223 7.29 14.879 12.002 25.222 15.523 10.622 3.616 25.334 3.805 35.99.462 19.62-6.154 35.625-22.067 41.776-41.535 3.179-10.064 3.126-26.229-.118-36-3.502-10.548-7.701-17.205-16.154-25.609-8.341-8.293-17.584-13.61-28.464-16.376-7.424-1.887-22.239-1.856-29.54.061m-3.606 163.985c-56.008 6.792-102.795 32.808-105.096 58.439-.373 4.158-.002 5.029 4.89 11.465 12.978 17.076 32.534 33.156 52.312 43.014 57.456 28.638 125.619 17.719 171.296-27.439 4.818-4.763 11.134-11.784 14.035-15.6 4.894-6.438 5.247-7.273 4.883-11.542-1.921-22.555-38.28-45.55-87.573-55.385-23.088-4.606-35.56-5.278-54.747-2.952" fill="undefined" fill-rule="evenodd"/></svg>